HIERARCHY
ROOT ui
{
	 OFFSET 0 0 0
	 CHANNELS 3 XPosition YPosition Z Position
	 EndSite
	 {
	 OFFSET 0 -1 0
	 }
}
ROOT li
{
	 OFFSET 0 0 0
	 CHANNELS 3 XPosition YPosition Z Position
	 EndSite
	 {
	 OFFSET 0 -1 0
	 }
}
ROOT ul
{
	 OFFSET 0 0 0
	 CHANNELS 3 XPosition YPosition Z Position
	 EndSite
	 {
	 OFFSET 0 -1 0
	 }
}
ROOT ll
{
	 OFFSET 0 0 0
	 CHANNELS 3 XPosition YPosition Z Position
	 EndSite
	 {
	 OFFSET 0 -1 0
	 }
}
ROOT tt
{
	 OFFSET 0 0 0
	 CHANNELS 3 XPosition YPosition Z Position
	 EndSite
	 {
	 OFFSET 0 -1 0
	 }
}
ROOT tb
{
	 OFFSET 0 0 0
	 CHANNELS 3 XPosition YPosition Z Position
	 EndSite
	 {
	 OFFSET 0 -1 0
	 }
}
ROOT td
{
	 OFFSET 0 0 0
	 CHANNELS 3 XPosition YPosition Z Position
	 EndSite
	 {
	 OFFSET 0 -1 0
	 }
}
ROOT v
{
	 OFFSET 0 0 0
	 CHANNELS 3 XPosition YPosition Z Position
	 EndSite
	 {
	 OFFSET 0 -1 0
	 }
}
ROOT bn
{
	 OFFSET 0 0 0
	 CHANNELS 3 XPosition YPosition Z Position
	 EndSite
	 {
	 OFFSET 0 -1 0
	 }
}
MOTION
Frames: 18
Frame Time: 0.002
-0.0010421390533447265	0.0010866010189056396	0		0.5394202880859374	-2.323226318359375	0		-1.0996971435546874	-0.041460479736328125	0		-0.7182603759765624	-2.366680908203125	0		1.4752635498046875	-0.4413775939941406	0		3.27080615234375	-0.10797530364990235	0		4.79656884765625	0.09196532440185547	0		5.621953125	0.16359228515625	0		-0.2081720428466797	5.92032470703125	0		
-0.00421673583984375	-0.0023252089023590087	0		0.5372525634765625	-2.324656005859375	0		-1.1038719482421875	-0.0448499641418457	0		-0.7923563842773438	-2.362152587890625	0		1.472085205078125	-0.4448017272949219	0		3.27374853515625	-0.10249417114257812	0		4.79725	0.07746179962158203	0		5.61894677734375	0.15244326782226564	0		-0.1771290740966797	5.9294658203125	0		
0.005503921031951904	-0.01090652084350586	0		0.53504638671875	-2.32608447265625	0		-1.1040322265625	-0.044290798187255856	0		-0.756579345703125	-2.365070068359375	0		1.4719215087890625	-0.44426483154296875	0		3.285520751953125	-0.10713051605224609	0		4.7970908203125	0.07796995544433594	0		5.6146181640625	0.16555714416503906	0		-0.21032705688476563	5.9234521484375	0		
-0.004575438022613525	-0.0012318019866943359	0		0.5388797607421875	-2.321598388671875	0		-1.0942454833984374	-0.04486923599243164	0		-0.8167935180664062	-2.363728759765625	0		1.4717188720703125	-0.4437339172363281	0		3.29357080078125	-0.0877225341796875	0		4.80098486328125	0.08541856384277344	0		5.6257919921875	0.1487511444091797	0		-0.20850083923339843	5.9219716796875	0		
-0.0017618030309677125	0.0032600729465484617	0		0.540660400390625	-2.318097900390625	0		-1.0904322509765625	-0.04038121795654297	0		-0.7509660034179687	-2.357061279296875	0		1.4806204833984375	-0.43233447265625	0		3.27498974609375	-0.11297925567626953	0		4.80074658203125	0.08590920257568359	0		5.621435546875	0.16702445983886718	0		-0.19551860046386718	5.93533251953125	0		
0.004786087989807129	-0.009316620826721191	0		0.5383219604492188	-2.320561279296875	0		-1.100698486328125	-0.03872574996948242	0		-0.7793685302734376	-2.364170166015625	0		1.4742451171875	-0.43875228881835937	0		3.297957763671875	-0.09379693603515625	0		4.80046728515625	0.08638423156738281	0		5.6212353515625	0.16783584594726564	0		-0.21089352416992188	5.9250478515625	0		
-0.005416019916534424	3.072820007801056E-4	0		0.5629140625	-2.325402587890625	0		-1.105072998046875	-0.042171443939208984	0		-0.7197005615234375	-2.363464111328125	0		1.470867431640625	-0.44223101806640625	0		3.272544921875	-0.09999889373779297	0		4.79605419921875	0.079893310546875	0		5.62100537109375	0.1686143035888672	0		-0.2111432342529297	5.92754150390625	0		
-0.005780337810516357	7.739589810371399E-4	0		0.5355755615234375	-2.321583251953125	0		-1.1054376220703126	-0.04169709396362305	0		-0.7940352783203125	-2.359014892578125	0		1.4655797119140626	-0.4357091064453125	0		3.28411279296875	-0.10471324157714844	0		4.79978271484375	0.08727300262451172	0		5.620744140625	0.1693548126220703	0		-0.17840298461914061	5.9325732421875	0		
0.0036928229331970215	-0.0079202880859375	0		0.5440478515625	-2.329267578125	0		-1.0958590087890625	-0.042385345458984376	0		-0.7726436157226563	-2.372862548828125	0		1.4731429443359374	-0.437386474609375	0		3.287493408203125	-0.12034757232666016	0		4.78245703125	0.09390518951416016	0		5.617505859375	0.15284585571289064	0		-0.1947460174560547	5.93522314453125	0		
0.006282931804656983	-0.0045554618835449215	0		0.5496787109375	-2.321945556640625	0		-1.092255859375	-0.03802817535400391	0		-0.7769063720703125	-2.357402099609375	0		1.4787835693359375	-0.4300692443847656	0		3.30845166015625	-0.08924017333984376	0		4.80300634765625	0.09400759887695312	0		5.6272353515625	0.16528553771972657	0		-0.19516473388671876	5.93562890625	0		
0.002751936912536621	-0.007144887924194336	0		0.563189208984375	-2.3207626953125	0		-1.0986942138671876	-0.03357381057739258	0		-0.7913670654296875	-2.35384326171875	0		1.475250732421875	-0.43266497802734377	0		3.267764892578125	-0.10335316467285156	0		4.79843603515625	0.08841109466552734	0		5.61978076171875	0.1713040771484375	0		-0.21272195434570312	5.9292255859375	0		
0.002217175006866455	-0.006808711051940918	0		0.533648681640625	-2.320044677734375	0		-1.1032684326171875	-0.036180503845214845	0		-0.7579793701171875	-2.358953857421875	0		1.468609130859375	-0.4402539367675781	0		3.282228271484375	-0.10322715759277344	0		4.78891552734375	0.08984918212890625	0		5.61647998046875	0.15983419799804688	0		-0.21323553466796874	5.9295625	0		
-0.008242395401000977	0.002625751972198486	0		0.5600202026367187	-2.3231005859375	0		-1.107900634765625	-0.039821048736572266	0		-0.7965493774414063	-2.357145751953125	0		1.4680281982421874	-0.4399554138183594	0		3.271556640625	-0.10980101013183594	0		4.797322265625	0.08901882934570313	0		5.61185302734375	0.17257618713378906	0		-0.21379753112792968	5.9298662109375	0		
-0.008868247032165528	0.0028974490165710447	0		0.5413241577148438	-2.32759130859375	0		-1.098540771484375	-0.04067903900146484	0		-0.7852613525390625	-2.363030517578125	0		1.4704539794921876	-0.43572732543945314	0		3.28520751953125	-0.08872434997558594	0		4.79669677734375	0.08927903747558594	0		5.6227236328125	0.15535841369628905	0		-0.23335459899902344	5.9343896484375	0		
0.003378653049468994	-0.003031421899795532	0		0.5358201904296875	-2.314284423828125	0		-1.101107177734375	-0.03240863418579101	0		-0.827735595703125	-2.3472314453125	0		1.4359029541015624	-0.4260376892089844	0		3.2684169921875	-0.09727462005615234	0		4.7952099609375	0.10352552032470703	0		5.61805908203125	0.17319776916503907	0		-0.1999536590576172	5.93918212890625	0		
-0.010259025573730469	0.003356055021286011	0		0.5350999755859375	-2.314069091796875	0		-1.1058648681640626	-0.035138618469238284	0		-0.7565283813476562	-2.352968017578125	0		1.47211474609375	-0.4313125915527344	0		3.307774658203125	-0.09159175872802734	0		4.79530615234375	0.08972531127929688	0		5.6175458984375	0.17356314086914063	0		-0.20066691589355468	5.93939794921875	0		
-0.011020975112915039	0.0035468850135803223	0		0.557230712890625	-2.32218212890625	0		-1.1066268310546874	-0.03494807815551758	0		-0.795286376953125	-2.352274169921875	0		1.46830029296875	-0.435081298828125	0		3.266936767578125	-0.09686982727050782	0		4.789650390625	0.09798292541503906	0		5.6170029296875	0.17389579772949218	0		-0.1834849853515625	5.93535107421875	0		
-0.0019429550170898438	-0.005417383193969726	0		0.529474365234375	-2.318656494140625	0		-1.1074287109375	-0.03478237533569336	0		-0.7282098999023437	-2.362007568359375	0		1.4644462890625	-0.43887164306640625	0		3.272160888671875	-0.09477716827392578	0		4.7888486328125	0.09815750122070313	0		5.61643115234375	0.17419975280761718	0		-0.2032279815673828	5.94076904296875	0		
